<?xml version="1.0" encoding="UTF-8"?>
<!DOCTYPE svg PUBLIC "-//W3C//DTD SVG 1.1//EN" "http://www.w3.org/Graphics/SVG/1.1/DTD/svg11.dtd">
<!-- Creator: CorelDRAW 2021 (64-Bit) -->
<svg xmlns="http://www.w3.org/2000/svg" xml:space="preserve" width="0.709063in" height="0.640031in" version="1.1" style="shape-rendering:geometricPrecision; text-rendering:geometricPrecision; image-rendering:optimizeQuality; fill-rule:evenodd; clip-rule:evenodd"
viewBox="0 0 709.06 640.03"
 xmlns:xlink="http://www.w3.org/1999/xlink"
 xmlns:xodm="http://www.corel.com/coreldraw/odm/2003">
 <defs>
  <style type="text/css">
   <![CDATA[
    .fil0 {fill:blue}
    .fil3 {fill:#003399}
    .fil2 {fill:#5520C0}
    .fil1 {fill:#B3B3B3}
   ]]>
  </style>
 </defs>
 <g id="Layer_x0020_1">
  <metadata id="CorelCorpID_0Corel-Layer"/>
  <g id="_2148677994624">
   <path class="fil0" d="M375.54 619.11l-15.38 -353.9c-13.29,-7.75 -24.07,-16.96 -38.23,-28.01l-117.2 -87.95c0.56,18.65 67.98,368.17 74.83,406.01 6.17,34.07 11.13,26.04 40.47,39.68 15.67,7.29 40.14,19.46 55.5,24.17z"/>
   <path class="fil1" d="M206.28 132.52c2.17,2.56 1.46,1.81 4.36,4.46 0.28,0.25 3.8,3.26 4.48,3.8 4.28,3.43 6.15,4.67 10.59,8.08 7.17,5.5 13.88,10.05 21.57,15.94l122.69 92.46c7.95,-6.79 22.72,-24.24 30.28,-33.48 5.34,-6.52 10.2,-10.06 15.57,-16.43l74.03 -84.53 -172.23 -103.26c-17.48,17.74 -105.66,102.48 -111.33,112.96z"/>
   <path class="fil2" d="M383.19 276.98c0,98.68 6.41,239.46 9.24,342.63 6.75,-1.06 52.56,-22.23 55.52,-30.89l39.78 -436.2c-5.02,4.96 -7.03,6.18 -12.84,12.08l-81.65 92.35c-7.46,6.97 -10.05,7.42 -10.05,20.03z"/>
   <path class="fil3" d="M499.42 620.47c12.95,-6.33 28.63,-8.27 42.57,-11.38 24.89,-5.56 20.42,-4.26 28.71,-27.26 16.46,-45.63 83.85,-211.28 91.2,-238.69 -16.81,5 -56.56,26.74 -74.17,36.16 -45.83,24.51 -34.54,7.89 -47.47,62.09l-40.84 179.09z"/>
   <path class="fil2" d="M231.81 612.44c-2.06,-19.97 -19.74,-63.55 -26.76,-84.4l-42.75 -125.84c-5.44,-11.46 -24.48,-14.35 -36.96,-19.23 -24.11,-9.41 -58.51,-24.79 -81.78,-30.65l120.39 241.02c11.54,22.38 33,3.59 67.86,19.1z"/>
   <path class="fil1" d="M40.87 340.72c10.81,7.67 107.72,43.85 124.23,48.49 9.52,-23.93 43.9,-83.67 47.52,-104.2l-122.82 -32.6 -48.94 88.31z"/>
   <path class="fil1" d="M486.1 292.38l58.6 99.13 119.22 -58.69c-8.84,-13.5 -18.44,-27.63 -27.52,-40.86 -9.54,-13.89 -20.04,-32.11 -30.5,-42.92l-119.8 43.34z"/>
   <path class="fil2" d="M489.14 617.11c12.66,-70.07 31.36,-140.69 44.78,-209.11 2.97,-15.13 -4.67,-22.33 -11.79,-33.96 -11.24,-18.34 -26.96,-48.23 -38.85,-62.04l-23.92 249.1c-2.51,26.49 -10.22,30.99 24.12,52.82 5.91,3.76 1.54,1.39 5.65,3.18z"/>
   <path class="fil3" d="M244.24 607.61c9.89,-7.83 18.94,-17.71 28.15,-24.74l-54.3 -279.13c-12.48,17.74 -23.93,49.61 -34.63,69.87 -14.09,26.69 -7.06,26.8 9.28,78.42 7.16,22.63 46.62,149.54 51.49,155.58z"/>
  </g>
 </g>
</svg>
